<svg width="210" height="37" viewBox="0 0 210 37" fill="none" xmlns="http://www.w3.org/2000/svg">
  <path fill-rule="evenodd" clip-rule="evenodd" d="M151.997 9.4016H147.155C145.787 9.4016 144.839 9.66112 144.26 10.2321C143.682 10.777 143.392 11.7372 143.392 13.0348V29.54H140.497V12.8272C140.524 11.5556 140.734 10.1801 141.418 9.14209C142.655 7.19572 145.024 6.8324 146.787 6.8324H152.023V9.4016H151.997Z" fill="black"/>
  <path fill-rule="evenodd" clip-rule="evenodd" d="M133.313 26.9449C131.945 26.9449 130.998 26.6854 130.419 26.1145C129.84 25.5695 129.55 24.6612 129.55 23.3636V9.40166H135.629V6.83246H129.55V0.00720215H126.656V23.5193C126.682 24.7909 126.893 26.1664 127.577 27.2044C128.814 29.1508 131.182 29.5141 132.945 29.5141H138.182V26.9449H133.313Z" fill="black"/>
  <path fill-rule="evenodd" clip-rule="evenodd" d="M57.4476 0.00720215V6.80651H51.3689C47.6848 6.80651 45.4481 7.89647 44.0534 9.22C41.9219 11.2702 41.9219 14.2027 41.9219 14.5141C41.9219 14.8774 41.9219 21.4691 41.9219 21.8325C41.9219 22.1439 41.9219 25.0764 44.0534 27.1266C45.4218 28.4501 47.6585 29.5401 51.3689 29.5401H54.0793C55.8424 29.5401 58.2108 29.1508 59.4476 27.2304C60.1054 26.1923 60.3423 24.8169 60.3686 23.5453V0.00720215H57.4476ZM56.5793 26.1404C56.0003 26.6854 55.053 26.9709 53.6846 26.9709H51.0531C48.6585 26.9709 47.1585 26.2961 46.2638 25.4138C45.1849 24.3757 44.8165 23.0003 44.8165 21.9363V14.4363C44.8165 13.3723 45.1849 11.9968 46.2638 10.9588C47.1849 10.0764 48.6585 9.40167 51.0531 9.40167H57.4213V23.3896C57.4476 24.6612 57.1582 25.5695 56.5793 26.1404Z" fill="black"/>
  <path fill-rule="evenodd" clip-rule="evenodd" d="M178.207 10.9587C179.128 10.0763 180.601 9.4016 182.996 9.4016H189.969V6.8324H183.285C179.601 6.8324 177.365 7.92236 175.97 9.24589C173.838 11.2961 173.838 14.2286 173.838 14.54C173.838 14.7476 173.838 21.6507 173.838 21.8583C173.838 22.1698 173.838 25.1023 175.97 27.1525C177.338 28.476 179.575 29.566 183.285 29.566H189.969V26.9968H182.996C180.601 26.9968 179.101 26.322 178.207 25.4397C177.128 24.4016 176.759 23.0262 176.759 21.9622V14.4362C176.759 13.3722 177.128 11.9708 178.207 10.9587Z" fill="black"/>
  <path fill-rule="evenodd" clip-rule="evenodd" d="M123.656 14.5141C123.656 14.2027 123.656 11.2702 121.524 9.22001C120.156 7.89648 117.919 6.80652 114.209 6.80652H107.762V9.37572H114.498C116.893 9.37572 118.393 10.0505 119.288 10.9328C120.367 11.9709 120.735 13.3463 120.735 14.4103V16.6162H111.498C109.735 16.6162 107.367 17.0055 106.13 18.9259C105.472 19.964 105.236 21.3394 105.209 22.611V23.5193C105.236 24.7909 105.446 26.1664 106.13 27.2044C107.367 29.1508 109.735 29.5141 111.498 29.5141H117.367C119.13 29.5141 121.498 29.1249 122.735 27.2044C123.393 26.1664 123.63 24.7909 123.656 23.5193C123.656 23.5193 123.656 15.9934 123.656 14.5141ZM119.893 26.1404C119.314 26.6854 118.367 26.9709 116.998 26.9709H111.893C110.525 26.9709 109.578 26.7114 108.999 26.1404C108.42 25.5695 108.157 24.6612 108.157 23.3896V22.7667C108.157 21.4691 108.446 20.5608 109.025 20.0159C109.604 19.4709 110.551 19.1854 111.92 19.1854H120.761V23.3896C120.761 24.6612 120.472 25.5695 119.893 26.1404Z" fill="black"/>
  <path fill-rule="evenodd" clip-rule="evenodd" d="M171.549 14.5141C171.549 14.2027 171.549 11.2702 169.418 9.22001C168.049 7.89648 165.812 6.80652 162.102 6.80652H155.655V9.37572H162.391C164.786 9.37572 166.286 10.0505 167.181 10.9328C168.26 11.9709 168.628 13.3463 168.628 14.4103V16.6162H159.392C157.628 16.6162 155.26 17.0055 154.023 18.9259C153.365 19.964 153.129 21.3394 153.102 22.611V23.5193C153.129 24.7909 153.339 26.1664 154.023 27.2044C155.26 29.1508 157.628 29.5141 159.392 29.5141H165.26C167.023 29.5141 169.391 29.1249 170.628 27.2044C171.286 26.1664 171.523 24.7909 171.549 23.5193C171.549 23.5193 171.549 15.9934 171.549 14.5141ZM167.786 26.1404C167.207 26.6854 166.26 26.9709 164.891 26.9709H159.786C158.418 26.9709 157.471 26.7114 156.892 26.1404C156.313 25.5695 156.05 24.6612 156.05 23.3896V22.7667C156.05 21.4691 156.339 20.5608 156.918 20.0159C157.497 19.4709 158.444 19.1854 159.813 19.1854H168.654V23.3896C168.654 24.6612 168.365 25.5695 167.786 26.1404Z" fill="black"/>
  <path fill-rule="evenodd" clip-rule="evenodd" d="M83.3679 6.80652H80.3417L72.9998 25.6473L65.658 6.80652H62.6581L71.4999 29.5141L68.8421 36.3394H71.8683L83.3679 6.80652Z" fill="black"/>
  <path fill-rule="evenodd" clip-rule="evenodd" d="M102.946 14.5141C102.946 14.2027 102.946 11.2702 100.841 9.22001C99.4988 7.92244 97.3673 6.85842 93.8937 6.80652H93.578C90.1044 6.85842 87.9729 7.92244 86.6308 9.22001C84.5256 11.2702 84.5256 14.2027 84.5256 14.5141C84.5256 14.8775 84.5256 28.3723 84.5256 29.5401H87.4203V14.4363C87.4203 13.3723 87.7624 11.9968 88.8413 10.9588C89.736 10.1024 91.4464 9.42763 93.7358 9.40167C96.0252 9.42763 97.7357 10.1024 98.6304 10.9588C99.683 11.9968 100.051 13.3723 100.051 14.4363V29.5401H102.946C102.946 28.3723 102.946 14.8775 102.946 14.5141Z" fill="black"/>
  <path fill-rule="evenodd" clip-rule="evenodd" d="M207.89 9.22001C206.548 7.92244 204.416 6.85842 200.943 6.80652H200.627C197.153 6.85842 195.022 7.92244 193.68 9.22001C191.575 11.2702 191.575 14.2027 191.575 14.5141V21.8325C191.575 22.1439 191.575 25.0764 193.68 27.1266C195.022 28.4242 197.153 29.4882 200.627 29.5401H207.469V26.9449H200.785C198.495 26.919 196.785 26.2442 195.89 25.3878C194.838 24.3498 194.469 22.9743 194.469 21.9103V19.2373H209.995V14.5141C210.021 14.2027 210.021 11.2702 207.89 9.22001ZM194.496 16.6681V14.4363C194.496 13.3723 194.838 11.9968 195.917 10.9588C196.811 10.1024 198.522 9.42763 200.811 9.40167C203.1 9.42763 204.811 10.1024 205.706 10.9588C206.758 11.9968 207.127 13.3723 207.127 14.4363V16.6681H194.496Z" fill="black"/>
  <path fill-rule="evenodd" clip-rule="evenodd" d="M12.2914 3.04348C11.8177 5.50888 11.2388 9.16805 10.923 12.8791C10.3704 19.4189 10.7125 23.8047 10.7125 23.8047L1.37069 32.5504C1.37069 32.5504 0.660191 27.6456 0.291783 22.1179C0.081264 18.6923 0.00231934 15.6819 0.00231934 13.8653C0.00231934 13.7615 0.0549491 13.6577 0.0549491 13.5539C0.0549491 13.4241 0.212838 12.2044 1.42332 11.0625C2.73907 9.81684 12.4493 2.31684 12.2914 3.04348Z" fill="#1496FF"/>
  <path fill-rule="evenodd" clip-rule="evenodd" d="M12.2914 3.04349C11.8177 5.50889 11.2388 9.16806 10.923 12.8791C10.923 12.8791 0.581247 11.6594 0.00231934 14.1248C0.00231934 13.995 0.186523 12.4899 1.39701 11.348C2.71275 10.1023 12.4493 2.31685 12.2914 3.04349Z" fill="#1284EA"/>
  <path fill-rule="evenodd" clip-rule="evenodd" d="M0.00231022 13.5279C0.00231022 13.7096 0.00231022 13.8912 0.00231022 14.0988C0.10757 13.6577 0.291774 13.3462 0.660182 12.8532C1.42331 11.893 2.66011 11.6334 3.16009 11.5815C5.68632 11.2442 9.42303 10.8549 13.1861 10.7511C19.8437 10.5435 24.2383 11.0885 24.2383 11.0885L33.5801 2.34279C33.5801 2.34279 28.6855 1.43449 23.1068 0.785697C19.449 0.34452 16.2386 0.110956 14.4229 0.00714992C14.2913 0.00714992 13.0019 -0.148559 11.7914 0.993309C10.4756 2.23898 3.79165 8.49331 1.10754 11.0106C-0.102949 12.1525 0.00231022 13.4241 0.00231022 13.5279Z" fill="#BEDF2A"/>
  <path fill-rule="evenodd" clip-rule="evenodd" d="M33.2381 24.713C30.7118 25.0504 26.9751 25.4656 23.2121 25.5954C16.5544 25.803 12.1335 25.258 12.1335 25.258L2.79175 34.0296C2.79175 34.0296 7.73894 34.9898 13.3177 35.6127C16.7386 36.0019 19.7648 36.2096 21.6069 36.3134C21.7385 36.3134 21.949 36.2096 22.0806 36.2096C22.2121 36.2096 23.5016 35.976 24.712 34.8341C26.0278 33.5885 33.9749 24.6352 33.2381 24.713Z" fill="#6F2DA8"/>
  <path fill-rule="evenodd" clip-rule="evenodd" d="M33.238 24.713C30.7118 25.0504 26.975 25.4656 23.212 25.5954C23.212 25.5954 23.9225 35.8462 21.4226 36.2874C21.5542 36.2874 23.2646 36.2096 24.4751 35.0677C25.7909 33.822 33.9748 24.6352 33.238 24.713Z" fill="#591F91"/>
  <path fill-rule="evenodd" clip-rule="evenodd" d="M21.9753 36.3393C21.7911 36.3393 21.6069 36.3133 21.3964 36.3133C21.87 36.2355 22.1858 36.0798 22.6858 35.7164C23.6858 35.0157 24.0015 33.796 24.1068 33.3029C24.5541 30.8375 25.1594 27.1784 25.4489 23.4673C25.9752 16.9275 25.6594 12.5676 25.6594 12.5676L35.0012 3.79602C35.0012 3.79602 35.6853 8.67491 36.0801 14.2026C36.3169 17.8099 36.3958 21.0019 36.4222 22.7666C36.4222 22.8964 36.5274 24.168 35.3169 25.3099C34.0012 26.5555 27.3172 32.8358 24.6594 35.3531C23.3963 36.495 22.1069 36.3393 21.9753 36.3393Z" fill="#73BE28"/>
</svg>